<svg width="109" height="34" viewBox="0 0 109 34" fill="none" xmlns="http://www.w3.org/2000/svg">
<path d="M20.9487 23.0387L17.1929 18.024H10.2079V31.3548H16.2921V33.4H0.749023V31.3548H5.64478V3.38943H0.749023V1.34765H23.5162L26.0836 0V9.84661L21.1878 3.38943H10.2079V15.9754H17.1929L20.9487 11.0047V23.0387Z" fill="#FDFDFA"/>
<path d="M38.0688 11.5667C43.9138 11.5667 49.2843 16.0736 49.2843 22.4834C49.2843 28.8931 43.9138 33.4 38.0688 33.4C32.2236 33.4 26.8532 28.8931 26.8532 22.4834C26.8532 16.0736 32.2236 11.5667 38.0688 11.5667ZM38.0688 31.5851C41.537 31.5851 44.6761 27.7758 44.6761 22.48C44.6761 17.1842 41.5405 13.3749 38.0688 13.3749C34.597 13.3749 31.4614 17.2756 31.4614 22.48C31.4614 27.6843 34.597 31.5851 38.0688 31.5851Z" fill="#FDFDFA"/>
<path d="M50.0574 14.7293L58.4215 11.5701V15.6571H59.4193C61.6056 13.7067 63.3657 12.0341 65.4065 12.0341C66.9275 12.0341 68.1159 13.0566 68.1159 14.5431C68.1159 15.796 67.1665 16.9133 65.8811 17.4246L62.1738 15.2406L58.418 17.9799V31.541H63.2652V33.4H50.8128V31.541H54.236V17.3264L50.054 14.7259L50.0574 14.7293Z" fill="#FDFDFA"/>
<path d="M68.8856 14.7293L77.2495 11.5701V15.5657H78.3444C80.0073 13.9878 82.1935 12.0341 85.3783 12.0341C88.278 12.0341 89.9412 13.6119 90.8422 15.796H91.6974C93.3607 14.2181 96.0218 12.0341 99.2057 12.0341C103.104 12.0341 104.909 14.8207 104.909 18.8603V31.541H108.332V33.4H97.307V31.541H100.73V20.0217C100.73 16.9099 99.0191 15.2846 96.0737 15.2846C94.1262 15.2846 92.318 16.5849 91.0847 17.7463V31.541H94.5073V33.4H83.4827V31.541H86.9061V20.0217C86.9061 16.9099 85.194 15.2846 82.2494 15.2846C80.3018 15.2846 78.4934 16.5849 77.2599 17.7463V31.541H80.683V33.4H69.6582V31.541H73.0814V17.3264L68.8994 14.7259L68.8856 14.7293Z" fill="#FDFDFA"/>
</svg>
